<svg width="69" height="69" viewBox="0 0 69 69" fill="none" xmlns="http://www.w3.org/2000/svg">
<rect width="69" height="69" rx="34.5" fill="#CCB66B"/>
<path d="M31.2443 52.4193V41.7741M26.6133 43.7096V50.4838C26.6133 51.5527 27.4426 52.4193 28.4657 52.4193H40.9011C42.2726 52.4193 43.4389 51.3738 43.6474 49.9575L44.6449 43.1833C44.9038 41.4247 43.6016 39.8386 41.8986 39.8386H38.6539C38.1424 39.8386 37.7277 39.4054 37.7277 38.8709V35.4507C37.7277 34.1328 36.7052 33.0645 35.4439 33.0645C35.143 33.0645 34.8704 33.2496 34.7482 33.5368L31.4888 41.1994C31.3401 41.5489 31.0084 41.7741 30.6424 41.7741H28.4657C27.4426 41.7741 26.6133 42.6407 26.6133 43.7096Z" stroke="#266751" stroke-width="2" stroke-linecap="round" stroke-linejoin="round"/>
<path d="M21.6556 24.5063C21.7975 24.2381 21.8685 24.104 21.9649 24.0612C22.0488 24.0239 22.1462 24.0239 22.23 24.0612C22.3264 24.104 22.3974 24.2381 22.5394 24.5063L23.8864 27.0506C23.9283 27.1298 23.9493 27.1694 23.9799 27.2001C24.007 27.2273 24.0396 27.2494 24.0757 27.265C24.1165 27.2827 24.1633 27.2891 24.257 27.3019L27.2701 27.7125C27.5874 27.7557 27.7461 27.7774 27.8195 27.8496C27.8834 27.9125 27.9134 27.9989 27.9013 28.0847C27.8873 28.1834 27.7724 28.2877 27.5427 28.4963L25.3632 30.4755C25.2953 30.5372 25.2613 30.5681 25.2394 30.6048C25.22 30.6373 25.2075 30.673 25.2027 30.7099C25.1973 30.7516 25.2053 30.7952 25.2214 30.8823L25.7356 33.6779C25.7899 33.9727 25.817 34.1202 25.766 34.2077C25.7217 34.2838 25.6429 34.3372 25.5515 34.3529C25.4465 34.3711 25.3045 34.3015 25.0205 34.1622L22.3268 32.8415C22.2429 32.8003 22.201 32.7797 22.1567 32.7717C22.1176 32.7645 22.0773 32.7645 22.0382 32.7717C21.994 32.7797 21.952 32.8003 21.8681 32.8415L19.1744 34.1622C18.8904 34.3015 18.7484 34.3711 18.6434 34.3529C18.5521 34.3372 18.4733 34.2838 18.4289 34.2077C18.3779 34.1202 18.4051 33.9727 18.4593 33.6779L18.9736 30.8823C18.9896 30.7952 18.9976 30.7516 18.9922 30.7099C18.9874 30.673 18.9749 30.6373 18.9555 30.6048C18.9336 30.5681 18.8996 30.5372 18.8317 30.4755L16.6522 28.4963C16.4225 28.2877 16.3076 28.1834 16.2937 28.0847C16.2815 27.9989 16.3116 27.9125 16.3754 27.8496C16.4488 27.7774 16.6075 27.7557 16.9248 27.7125L19.9379 27.3019C20.0316 27.2891 20.0784 27.2827 20.1193 27.265C20.1554 27.2494 20.1879 27.2273 20.215 27.2001C20.2457 27.1694 20.2666 27.1298 20.3085 27.0506L21.6556 24.5063Z" stroke="#266751" stroke-width="1.6" stroke-linecap="round" stroke-linejoin="round"/>
<path d="M48.1552 24.5063C48.2814 24.2381 48.3445 24.104 48.4302 24.0612C48.5047 24.0239 48.5913 24.0239 48.6658 24.0612C48.7515 24.104 48.8146 24.2381 48.9408 24.5063L50.1382 27.0506C50.1754 27.1298 50.1941 27.1694 50.2213 27.2001C50.2454 27.2273 50.2743 27.2494 50.3064 27.265C50.3427 27.2827 50.3843 27.2891 50.4676 27.3019L53.1459 27.7125C53.428 27.7557 53.569 27.7774 53.6343 27.8496C53.691 27.9125 53.7177 27.9989 53.7069 28.0847C53.6945 28.1834 53.5924 28.2877 53.3882 28.4963L51.4509 30.4755C51.3905 30.5372 51.3603 30.5681 51.3408 30.6048C51.3236 30.6373 51.3125 30.673 51.3083 30.7099C51.3034 30.7516 51.3106 30.7952 51.3248 30.8823L51.7819 33.6779C51.8301 33.9727 51.8542 34.1202 51.8089 34.2077C51.7695 34.2838 51.6995 34.3372 51.6183 34.3529C51.5249 34.3711 51.3987 34.3015 51.1463 34.1622L48.7519 32.8415C48.6773 32.8003 48.64 32.7797 48.6007 32.7717C48.5659 32.7645 48.5301 32.7645 48.4953 32.7717C48.456 32.7797 48.4187 32.8003 48.3441 32.8415L45.9497 34.1622C45.6973 34.3015 45.5711 34.3711 45.4778 34.3529C45.3966 34.3372 45.3265 34.2838 45.2871 34.2077C45.2418 34.1202 45.2659 33.9727 45.3141 33.6779L45.7712 30.8823C45.7855 30.7952 45.7926 30.7516 45.7878 30.7099C45.7835 30.673 45.7724 30.6373 45.7552 30.6048C45.7357 30.5681 45.7055 30.5372 45.6451 30.4755L43.7078 28.4963C43.5036 28.2877 43.4015 28.1834 43.3891 28.0847C43.3783 27.9989 43.405 27.9125 43.4618 27.8496C43.527 27.7774 43.668 27.7557 43.9501 27.7125L46.6284 27.3019C46.7117 27.2891 46.7533 27.2827 46.7896 27.265C46.8217 27.2494 46.8506 27.2273 46.8747 27.2001C46.902 27.1694 46.9206 27.1298 46.9578 27.0506L48.1552 24.5063Z" stroke="#266751" stroke-width="1.6" stroke-linecap="round" stroke-linejoin="round"/>
<path d="M34.5579 16.8232C34.6999 16.5215 34.7709 16.3707 34.8673 16.3225C34.9511 16.2805 35.0485 16.2805 35.1324 16.3225C35.2287 16.3707 35.2997 16.5215 35.4417 16.8232L36.7887 19.6856C36.8307 19.7747 36.8516 19.8192 36.8823 19.8538C36.9094 19.8844 36.9419 19.9092 36.978 19.9268C37.0188 19.9467 37.0657 19.9539 37.1594 19.9683L40.1725 20.4302C40.4898 20.4789 40.6484 20.5032 40.7218 20.5845C40.7857 20.6552 40.8158 20.7524 40.8036 20.849C40.7896 20.96 40.6748 21.0773 40.4451 21.312L38.2656 23.5386C38.1976 23.608 38.1637 23.6427 38.1417 23.684C38.1223 23.7206 38.1099 23.7607 38.1051 23.8023C38.0997 23.8492 38.1077 23.8982 38.1237 23.9963L38.638 27.1413C38.6922 27.473 38.7193 27.6389 38.6684 27.7373C38.624 27.8229 38.5452 27.883 38.4538 27.9007C38.3489 27.9211 38.2069 27.8428 37.9229 27.6862L35.2292 26.2003C35.1453 26.154 35.1033 26.1309 35.0591 26.1218C35.0199 26.1137 34.9797 26.1137 34.9405 26.1218C34.8963 26.1309 34.8544 26.154 34.7704 26.2003L32.0768 27.6862C31.7928 27.8428 31.6508 27.9211 31.5458 27.9007C31.4544 27.883 31.3756 27.8229 31.3313 27.7373C31.2803 27.6389 31.3074 27.473 31.3616 27.1413L31.8759 23.9963C31.8919 23.8982 31.9 23.8492 31.8945 23.8023C31.8897 23.7607 31.8773 23.7206 31.8579 23.684C31.836 23.6427 31.802 23.608 31.734 23.5386L29.5546 21.312C29.3248 21.0773 29.21 20.96 29.196 20.849C29.1839 20.7524 29.2139 20.6552 29.2778 20.5845C29.3512 20.5032 29.5098 20.4789 29.8271 20.4302L32.8402 19.9683C32.9339 19.9539 32.9808 19.9467 33.0216 19.9268C33.0577 19.9092 33.0902 19.8844 33.1174 19.8538C33.148 19.8192 33.169 19.7747 33.2109 19.6856L34.5579 16.8232Z" stroke="#266751" stroke-width="1.6" stroke-linecap="round" stroke-linejoin="round"/>
</svg>
