<svg width="69" height="69" viewBox="0 0 69 69" fill="none" xmlns="http://www.w3.org/2000/svg">
<rect width="69" height="69" rx="34.5" fill="#CCB66B"/>
<g clip-path="url(#clip0_445_165)">
<path d="M47.8432 24.3019L45.909 21.403C45.5561 20.87 44.6675 20.87 44.3015 21.403L42.3674 24.3019C42.2628 24.4579 42.2106 24.6528 42.2106 24.8348V27.7337H37.3882V24.8348C37.3882 24.6398 37.3359 24.4579 37.2314 24.3019L35.3103 21.403C34.9574 20.87 34.0687 20.87 33.7028 21.403L31.7686 24.3019C31.6641 24.4579 31.6118 24.6528 31.6118 24.8348V27.7337H26.7894V24.8348C26.7894 24.6398 26.7372 24.4579 26.6326 24.3019L24.6985 21.403C24.3325 20.87 23.4439 20.87 23.091 21.403L21.1568 24.3019C21.0523 24.4579 21 24.6528 21 24.8348V47.038C21 47.571 21.4313 48 21.9671 48H25.8224C26.3582 48 26.7894 47.571 26.7894 47.038V45.1141H31.6118V47.038C31.6118 47.571 32.0431 48 32.5789 48H36.4342C36.97 48 37.4013 47.571 37.4013 47.038V45.1141H42.2236V47.038C42.2236 47.571 42.6549 48 43.1907 48H47.046C47.5818 48 48.0131 47.571 48.0131 47.038V24.8348C48.0131 24.6398 47.9608 24.4579 47.8562 24.3019H47.8432ZM22.9342 43.1772V42.2152H46.0789V43.1772H22.9342ZM46.0789 29.6577V30.6196H22.9342V29.6577H46.0789ZM46.0789 40.2783H44.1447V32.5566H46.0789V40.2783ZM37.4013 40.2783V32.5566H42.2236V40.2783H37.4013ZM26.7894 40.2783V32.5566H31.6118V40.2783H26.7894ZM22.9342 32.5566H24.8683V40.2783H22.9342V32.5566ZM33.546 32.5566H35.4802V40.2783H33.546V32.5566ZM44.1447 25.1208L45.1118 23.6779L46.0789 25.1208V27.7207H44.1447V25.1208ZM33.5329 25.1208L34.5 23.6779L35.4671 25.1208V27.7207H33.5329V25.1208ZM22.9342 25.1208L23.9013 23.6779L24.8683 25.1208V27.7207H22.9342V25.1208ZM24.8683 46.0631H22.9342V45.1011H24.8683V46.0631ZM35.4802 46.0631H33.546V45.1011H35.4802V46.0631ZM46.092 46.0631H44.1578V45.1011H46.092V46.0631Z" fill="#246851"/>
</g>
<defs>
<clipPath id="clip0_445_165">
<rect width="27" height="27" fill="white" transform="translate(21 21)"/>
</clipPath>
</defs>
</svg>
