<svg width="69" height="69" viewBox="0 0 69 69" fill="none" xmlns="http://www.w3.org/2000/svg">
<rect width="69" height="69" rx="34.5" fill="#CCB66B"/>
<path d="M27.0003 33.6667V39M43.0003 31V36.3333M41.667 24.3333C44.9319 24.3333 46.6978 24.833 47.5765 25.2206C47.6935 25.2722 47.752 25.298 47.9209 25.4592C48.0221 25.5558 48.2068 25.8392 48.2544 25.9708C48.3337 26.1903 48.3337 26.3103 48.3337 26.5503V40.8815C48.3337 42.0932 48.3337 42.6991 48.152 43.0105C47.9671 43.3273 47.7889 43.4745 47.4429 43.5963C47.1028 43.7159 46.4163 43.584 45.0432 43.3202C44.0822 43.1356 42.9424 43 41.667 43C37.667 43 33.667 45.6667 28.3337 45.6667C25.0687 45.6667 23.3028 45.167 22.4242 44.7794C22.3072 44.7278 22.2487 44.702 22.0798 44.5408C21.9786 44.4442 21.7938 44.1608 21.7463 44.0292C21.667 43.8097 21.667 43.6897 21.667 43.4497L21.667 29.1185C21.667 27.9068 21.667 27.3009 21.8487 26.9895C22.0335 26.6728 22.2118 26.5255 22.5577 26.4038C22.8978 26.2841 23.5844 26.416 24.9574 26.6798C25.9185 26.8645 27.0583 27 28.3337 27C32.3337 27 36.3337 24.3333 41.667 24.3333ZM38.3337 35C38.3337 36.841 36.8413 38.3333 35.0003 38.3333C33.1594 38.3333 31.667 36.841 31.667 35C31.667 33.1591 33.1594 31.6667 35.0003 31.6667C36.8413 31.6667 38.3337 33.1591 38.3337 35Z" stroke="#246851" stroke-width="2.6" stroke-linecap="round" stroke-linejoin="round"/>
</svg>
