<svg width="52" height="73" viewBox="0 0 52 73" fill="none" xmlns="http://www.w3.org/2000/svg">
<mask id="path-1-inside-1_700_733" fill="white">
<path d="M44.4034 7.56321C39.2849 2.52125 33.1373 0 25.9598 0C22.3846 0 19.0674 0.63386 16.0066 1.90118C12.9194 3.16807 10.1162 5.05588 7.59762 7.56321C2.4791 12.6052 -0.0533345 18.7261 0.000851334 25.9254C0.000851334 30.6709 1.13854 34.9984 3.41348 38.9078C3.44036 38.9618 3.50797 39.0558 3.61632 39.1909C3.72467 39.3527 3.81959 39.5011 3.90106 39.6358L25.4722 72.8L48.4248 39.1905C50.8081 35.2268 52 30.8048 52 25.9244C52 18.752 49.4676 12.6315 44.4032 7.56222M34.8565 17.9159C37.294 20.3426 38.5128 23.2815 38.5128 26.733C38.5128 28.4314 38.2012 30.0223 37.5784 31.5054C36.9824 32.9613 36.0753 34.3096 34.8566 35.5497C33.6105 36.7631 32.2565 37.68 30.7943 38.3C29.3047 38.8934 27.6932 39.1898 25.96 39.1898C22.5205 39.1898 19.582 37.9764 17.1445 35.5497C15.9257 34.3096 15.0187 32.9611 14.4227 31.5053C13.7999 30.0223 13.4883 28.4313 13.4883 26.733C13.4883 23.2815 14.7071 20.3426 17.1446 17.9158C19.5821 15.4351 22.5206 14.2218 25.9601 14.2757V14.3163C27.6933 14.2623 29.3047 14.5454 30.7943 15.1655C32.2567 15.7588 33.6106 16.6756 34.8567 17.9158L34.8565 17.9159Z"/>
</mask>
<path d="M44.4034 7.56321C39.2849 2.52125 33.1373 0 25.9598 0C22.3846 0 19.0674 0.63386 16.0066 1.90118C12.9194 3.16807 10.1162 5.05588 7.59762 7.56321C2.4791 12.6052 -0.0533345 18.7261 0.000851334 25.9254C0.000851334 30.6709 1.13854 34.9984 3.41348 38.9078C3.44036 38.9618 3.50797 39.0558 3.61632 39.1909C3.72467 39.3527 3.81959 39.5011 3.90106 39.6358L25.4722 72.8L48.4248 39.1905C50.8081 35.2268 52 30.8048 52 25.9244C52 18.752 49.4676 12.6315 44.4032 7.56222M34.8565 17.9159C37.294 20.3426 38.5128 23.2815 38.5128 26.733C38.5128 28.4314 38.2012 30.0223 37.5784 31.5054C36.9824 32.9613 36.0753 34.3096 34.8566 35.5497C33.6105 36.7631 32.2565 37.68 30.7943 38.3C29.3047 38.8934 27.6932 39.1898 25.96 39.1898C22.5205 39.1898 19.582 37.9764 17.1445 35.5497C15.9257 34.3096 15.0187 32.9611 14.4227 31.5053C13.7999 30.0223 13.4883 28.4313 13.4883 26.733C13.4883 23.2815 14.7071 20.3426 17.1446 17.9158C19.5821 15.4351 22.5206 14.2218 25.9601 14.2757V14.3163C27.6933 14.2623 29.3047 14.5454 30.7943 15.1655C32.2567 15.7588 33.6106 16.6756 34.8567 17.9158L34.8565 17.9159Z" fill="#246851"/>
<path d="M16.0066 1.90118L16.5128 3.1347L16.5167 3.13309L16.0066 1.90118ZM7.59762 7.56321L8.53331 8.51311L8.53832 8.50813L7.59762 7.56321ZM0.000851334 25.9254L1.33422 25.9254L1.33415 25.9153L0.000851334 25.9254ZM3.41348 38.9078L4.60685 38.3132L4.5876 38.2745L4.5659 38.2372L3.41348 38.9078ZM3.61632 39.1909L4.72421 38.449L4.69225 38.4013L4.65631 38.3565L3.61632 39.1909ZM3.90106 39.6358L2.76034 40.3261L2.77155 40.3446L2.78335 40.3628L3.90106 39.6358ZM25.4722 72.8L24.3545 73.527L25.4451 75.2038L26.5732 73.5519L25.4722 72.8ZM48.4248 39.1905L49.5259 39.9424L49.5476 39.9106L49.5675 39.8776L48.4248 39.1905ZM34.8565 17.9159L34.0259 16.8729L32.8555 17.8051L33.9158 18.8608L34.8565 17.9159ZM37.5784 31.5054L36.349 30.9891L36.3444 31.0003L37.5784 31.5054ZM34.8566 35.5497L35.7868 36.505L35.7973 36.4948L35.8076 36.4843L34.8566 35.5497ZM30.7943 38.3L31.2876 39.5387L31.3013 39.5333L31.3148 39.5276L30.7943 38.3ZM17.1445 35.5497L16.1935 36.4843L16.1986 36.4895L16.2038 36.4946L17.1445 35.5497ZM14.4227 31.5053L15.6567 31.0002L15.6521 30.989L14.4227 31.5053ZM17.1446 17.9158L18.0853 18.8607L18.0905 18.8555L18.0956 18.8503L17.1446 17.9158ZM25.9601 14.2757H27.2934V12.9631L25.981 12.9425L25.9601 14.2757ZM25.9601 14.3163H24.6268V15.6917L26.0016 15.649L25.9601 14.3163ZM30.7943 15.1655L30.2819 16.3965L30.2931 16.401L30.7943 15.1655ZM34.8567 17.9158L35.6873 18.9587L36.8579 18.0264L35.7972 16.9707L34.8567 17.9158ZM45.3391 6.61333C39.9715 1.32597 33.4879 -1.33333 25.9598 -1.33333V1.33333C32.7867 1.33333 38.5984 3.71653 43.4678 8.5131L45.3391 6.61333ZM25.9598 -1.33333C22.2235 -1.33333 18.7314 -0.670131 15.4966 0.669277L16.5167 3.13309C19.4034 1.93785 22.5458 1.33333 25.9598 1.33333V-1.33333ZM15.5004 0.667675C12.2404 2.0055 9.29164 3.99532 6.65692 6.6183L8.53832 8.50813C10.9407 6.11643 13.5985 4.33064 16.5128 3.13469L15.5004 0.667675ZM6.66194 6.61333C1.28595 11.9089 -1.38934 18.3763 -1.33244 25.9354L1.33415 25.9153C1.28267 19.0758 3.67225 13.3014 8.5333 8.5131L6.66194 6.61333ZM-1.33248 25.9254C-1.33248 30.8945 -0.138273 35.4553 2.26107 39.5784L4.5659 38.2372C2.41535 34.5416 1.33418 30.4474 1.33418 25.9254H-1.33248ZM2.22011 39.5025C2.32119 39.7054 2.4822 39.908 2.57633 40.0253L4.65631 38.3565C4.63401 38.3287 4.61549 38.3051 4.60035 38.2854C4.58506 38.2655 4.57455 38.2512 4.56787 38.2419C4.56079 38.232 4.56079 38.2316 4.56535 38.2387C4.56783 38.2426 4.57273 38.2504 4.57923 38.2617C4.58555 38.2726 4.59536 38.2901 4.60685 38.3132L2.22011 39.5025ZM2.50844 39.9328C2.60764 40.0809 2.69127 40.2119 2.76034 40.3261L5.04178 38.9454C4.9479 38.7903 4.84171 38.6245 4.72421 38.449L2.50844 39.9328ZM2.78335 40.3628L24.3545 73.527L26.5899 72.073L5.01876 38.9088L2.78335 40.3628ZM26.5732 73.5519L49.5259 39.9424L47.3237 38.4385L24.3711 72.0481L26.5732 73.5519ZM49.5675 39.8776C52.0825 35.6948 53.3333 31.033 53.3333 25.9244H50.6667C50.6667 30.5766 49.5337 34.7588 47.2821 38.5034L49.5675 39.8776ZM53.3333 25.9244C53.3333 18.399 50.6608 11.9394 45.3465 6.61987L43.46 8.50457C48.2743 13.3236 50.6667 19.1051 50.6667 25.9244H53.3333ZM33.9158 18.8608C36.101 21.0363 37.1794 23.6348 37.1794 26.733H39.8461C39.8461 22.9282 38.487 19.6489 35.7973 16.971L33.9158 18.8608ZM37.1794 26.733C37.1794 28.264 36.8994 29.6784 36.349 30.9891L38.8077 32.0216C39.5029 30.3661 39.8461 28.5987 39.8461 26.733H37.1794ZM36.3444 31.0003C35.8205 32.2801 35.0157 33.4856 33.9056 34.6152L35.8076 36.4843C37.135 35.1336 38.1443 33.6424 38.8123 32.0104L36.3444 31.0003ZM33.9264 34.5945C32.7875 35.7035 31.5698 36.5229 30.2737 37.0725L31.3148 39.5276C32.9433 38.837 34.4336 37.8227 35.7868 36.505L33.9264 34.5945ZM30.3009 37.0614C28.9807 37.5872 27.5381 37.8565 25.96 37.8565V40.5231C27.8483 40.5231 29.6287 40.1995 31.2876 39.5387L30.3009 37.0614ZM25.96 37.8565C22.8731 37.8565 20.2728 36.7828 18.0852 34.6048L16.2038 36.4946C18.8912 39.1701 22.1679 40.5231 25.96 40.5231V37.8565ZM18.0955 34.6151C16.9854 33.4856 16.1806 32.28 15.6567 31.0002L13.1888 32.0104C13.8568 33.6422 14.8661 35.1335 16.1935 36.4843L18.0955 34.6151ZM15.6521 30.989C15.1017 29.6785 14.8216 28.264 14.8216 26.733H12.155C12.155 28.5986 12.4982 30.3662 13.1934 32.0216L15.6521 30.989ZM14.8216 26.733C14.8216 23.6347 15.9001 21.0363 18.0853 18.8607L16.2038 16.9709C13.5141 19.6488 12.155 22.9282 12.155 26.733H14.8216ZM18.0956 18.8503C20.2805 16.6267 22.8691 15.5607 25.9392 15.6089L25.981 12.9425C22.1721 12.8828 18.8836 14.2436 16.1935 16.9813L18.0956 18.8503ZM24.6268 14.2757V14.3163H27.2934V14.2757H24.6268ZM26.0016 15.649C27.5594 15.6005 28.9804 15.8546 30.282 16.3964L31.3067 13.9345C29.6289 13.2362 27.8272 12.9242 25.9186 12.9836L26.0016 15.649ZM30.2931 16.401C31.5732 16.9204 32.7812 17.7314 33.9161 18.8608L35.7972 16.9707C34.44 15.6199 32.9402 14.5972 31.2956 13.9299L30.2931 16.401ZM34.026 16.8728L34.0259 16.8729L35.6872 18.9588L35.6873 18.9587L34.026 16.8728Z" fill="white" mask="url(#path-1-inside-1_700_733)"/>
<circle cx="26" cy="25.9998" r="17.3333" fill="#2C3936"/>
</svg>
