<svg width="20" height="20" viewBox="0 0 20 20" fill="none" xmlns="http://www.w3.org/2000/svg">
<path d="M12.1 9.9999L19.06 3.0399C19.64 2.45988 19.64 1.51991 19.06 0.939895C18.48 0.359879 17.54 0.359879 16.96 0.939895L9.99999 7.8999L3.03999 0.939895C2.45997 0.359879 1.52 0.359879 0.939987 0.939895C0.35997 1.51991 0.35997 2.45988 0.939987 3.0399L7.89999 9.9999L0.939987 16.9599C0.35997 17.5399 0.35997 18.4799 0.939987 19.0599C1.22 19.3399 1.60002 19.4999 1.97995 19.4999C2.35997 19.4999 2.73999 19.3599 3.01992 19.0599L9.99992 12.0999L16.9599 19.0599C17.2399 19.3399 17.62 19.4999 17.9999 19.4999C18.3799 19.4999 18.7599 19.3599 19.0399 19.0599C19.6199 18.4799 19.6199 17.5399 19.0399 16.9599L12.1 9.9999Z" fill="#2C3936"/>
</svg>
