<svg width="44" height="44" viewBox="0 0 44 44" fill="none" xmlns="http://www.w3.org/2000/svg">
<g id="noun-plus-669265 1">
<g id="Group">
<path id="Vector" d="M22.0002 2.19995C11.0823 2.19995 2.2002 11.0821 2.2002 22C2.2002 32.9178 11.0823 41.8 22.0002 41.8C32.9181 41.8 41.8002 32.9178 41.8002 22C41.8002 11.0821 32.9181 2.19995 22.0002 2.19995ZM22.0002 39.6C12.2956 39.6 4.4002 31.7045 4.4002 22C4.4002 12.2954 12.2956 4.39995 22.0002 4.39995C31.7048 4.39995 39.6002 12.2954 39.6002 22C39.6002 31.7045 31.7048 39.6 22.0002 39.6Z" fill="black"/>
<path id="Vector_2" d="M28.6003 20.9H23.1003V15.4C23.1003 14.7925 22.6079 14.3 22.0003 14.3C21.3927 14.3 20.9003 14.7925 20.9003 15.4V20.9H15.4003C14.7927 20.9 14.3003 21.3925 14.3003 22C14.3003 22.6076 14.7927 23.1 15.4003 23.1H20.9003V28.6C20.9003 29.2076 21.3927 29.7 22.0003 29.7C22.6079 29.7 23.1003 29.2076 23.1003 28.6V23.1H28.6003C29.2079 23.1 29.7003 22.6076 29.7003 22C29.7003 21.3925 29.2079 20.9 28.6003 20.9Z" fill="black"/>
</g>
</g>
</svg>
