<svg width="22" height="23" viewBox="0 0 22 23" fill="none" xmlns="http://www.w3.org/2000/svg">
<path d="M14 1.9578C13.053 1.66035 12.0452 1.5 11 1.5C5.47715 1.5 1 5.97715 1 11.5C1 17.0228 5.47715 21.5 11 21.5C16.5228 21.5 21 17.0228 21 11.5C21 9.78467 20.5681 8.17022 19.8071 6.75945M16 5.25H16.005M9.50005 21.3883L9.50016 19.1849C9.50017 19.0656 9.54286 18.9502 9.62053 18.8596L12.1063 15.9594C12.3106 15.7211 12.2473 15.3556 11.9748 15.1999L9.11853 13.5677C9.04093 13.5234 8.97663 13.4591 8.93234 13.3814L7.07046 10.1186C6.97356 9.94882 6.78657 9.85107 6.59183 9.86841L1.06418 10.3607M20 5.5C20 7.70914 18 9.5 16 11.5C14 9.5 12 7.70914 12 5.5C12 3.29086 13.7909 1.5 16 1.5C18.2091 1.5 20 3.29086 20 5.5ZM16.25 5.25C16.25 5.38807 16.1381 5.5 16 5.5C15.8619 5.5 15.75 5.38807 15.75 5.25C15.75 5.11193 15.8619 5 16 5C16.1381 5 16.25 5.11193 16.25 5.25Z" stroke="#2B3A37" stroke-width="2" stroke-linecap="round" stroke-linejoin="round"/>
</svg>
