<svg width="28" height="29" viewBox="0 0 28 29" fill="none" xmlns="http://www.w3.org/2000/svg">
<path d="M26.9364 20.2575L23.5664 16.8846C22.9008 16.1936 22.0966 15.8311 21.2441 15.8311C20.3973 15.8311 19.5874 16.1936 18.902 16.8761L17.1462 18.6319C17.0584 18.5866 16.9734 18.5441 16.8941 18.5045C16.6874 18.4025 16.4891 18.3006 16.3192 18.193C14.5379 17.063 12.9151 15.5818 11.3546 13.6702C10.6664 12.8007 10.1907 12.0701 9.84517 11.3507C10.2898 10.9344 10.7089 10.5096 11.1054 10.1018C11.2725 9.93187 11.4481 9.75628 11.618 9.58637C12.3203 8.88404 12.6913 8.06556 12.6913 7.22161C12.6913 6.37201 12.3203 5.55355 11.618 4.85685L9.94427 3.18312C9.75453 2.99337 9.57327 2.80928 9.38636 2.61387L9.37787 2.60538C9.01254 2.22872 8.61889 1.82941 8.22524 1.46406C7.55688 0.809866 6.75825 0.464355 5.9143 0.464355C5.07601 0.464355 4.26889 0.812694 3.58072 1.46974L1.47085 3.57961C0.618416 4.42356 0.136968 5.45441 0.0378366 6.64394C-0.0754447 8.05996 0.182271 9.5553 0.847807 11.3422C1.85034 14.0665 3.35993 16.5871 5.59704 19.2746C8.30733 22.5144 11.5812 25.0775 15.3222 26.8927L15.325 26.8955C16.7722 27.5809 18.7093 28.3852 20.8531 28.524H20.8786C21.0032 28.5296 21.1307 28.5353 21.2666 28.5353C22.8044 28.5353 24.0448 28.0029 25.056 26.9069C25.073 26.887 25.0956 26.8644 25.1183 26.8332C25.4015 26.4962 25.7243 26.179 26.0698 25.8477L26.1491 25.7712C26.472 25.4625 26.7269 25.2077 26.9534 24.9726C27.6303 24.2674 27.9871 23.449 27.9843 22.6022C27.9843 21.7526 27.6218 20.9426 26.9364 20.2573L26.9364 20.2575ZM2.37341 6.84213C2.43006 6.19925 2.67078 5.68667 3.12674 5.2307L5.21394 3.1435C5.44333 2.9226 5.68405 2.80366 5.90779 2.80366C6.17966 2.80366 6.42039 2.99058 6.57331 3.14635L6.59031 3.16334C6.90749 3.45788 7.21335 3.76939 7.53621 4.09791L7.68348 4.24801C7.77977 4.34713 7.87889 4.44625 7.97802 4.54821C8.07431 4.6445 8.1706 4.74362 8.26689 4.84275L9.94628 6.52214C10.1219 6.69773 10.3314 6.96393 10.3314 7.23015C10.3314 7.49637 10.1219 7.76257 9.94628 7.93816C9.85849 8.02596 9.77069 8.11375 9.68291 8.20438C9.59795 8.29218 9.51016 8.37997 9.42237 8.46775L9.30342 8.5867C8.83048 9.06532 8.38019 9.51844 7.89591 9.95173L7.84776 9.99987C7.11426 10.7334 7.36632 11.4924 7.44846 11.7416C7.45412 11.7614 7.45979 11.7755 7.46545 11.7925L7.47678 11.8209C7.93556 12.9197 8.56428 13.9449 9.51584 15.1428L9.51867 15.1456C11.232 17.2583 13.0388 18.9038 15.0468 20.181C15.2677 20.3254 15.4914 20.4387 15.7095 20.5463C15.7491 20.5662 15.7916 20.586 15.8313 20.6086L15.8341 20.6115C16.0408 20.7134 16.2391 20.8154 16.409 20.923L16.46 20.9513C16.477 20.9598 16.494 20.9712 16.511 20.9796C16.7602 21.1071 17.0179 21.1722 17.2756 21.1722C17.7118 21.1722 18.1082 20.9966 18.4537 20.6483L20.5551 18.5469C20.7194 18.3827 20.9686 18.1901 21.2405 18.1901C21.518 18.1901 21.7587 18.4053 21.8805 18.5356L21.8861 18.5413L25.2789 21.9285C25.766 22.4156 25.7575 22.846 25.2562 23.3671L25.2506 23.3728C25.0127 23.6277 24.7607 23.8712 24.5228 24.1006L24.4548 24.1658C24.0753 24.5339 23.6845 24.9134 23.3191 25.3495C22.7641 25.9443 22.1325 26.2076 21.2716 26.2076C21.1923 26.2076 21.1017 26.202 21.011 26.1963C19.2524 26.083 17.5956 25.3892 16.3466 24.7945C12.9084 23.1292 9.898 20.7729 7.40303 17.7881C5.34415 15.31 3.96218 13.0076 3.04747 10.541C2.50655 9.0853 2.28849 7.90727 2.37344 6.84225L2.37341 6.84213Z" fill="white"/>
</svg>
