<svg width="93" height="93" viewBox="0 0 93 93" fill="none" xmlns="http://www.w3.org/2000/svg">
<circle cx="46.5" cy="46.6841" r="45" fill="#CCB66C" stroke="white" stroke-width="2"/>
<path d="M64.5791 49.1483H52.6708V41.9285C52.6708 40.275 52.0138 38.6891 50.8446 37.5199C49.6754 36.3507 48.0895 35.6938 46.436 35.6938C46.1052 35.6938 45.7882 35.8253 45.5542 36.0591C45.3204 36.2929 45.1891 36.6101 45.1891 36.9407V40.9996C45.1905 42.333 44.9141 43.652 44.3773 44.8725C43.8405 46.0931 43.0552 47.1882 42.0717 48.0885L39.1226 50.7695V49.8964C39.1226 48.8928 38.724 47.9302 38.0143 47.2205C37.3046 46.5107 36.3419 46.1119 35.3381 46.1119H30.4189C29.4147 46.1119 28.4515 46.5105 27.7408 47.22C27.03 47.9296 26.63 48.8922 26.6282 49.8964V71.5059C26.63 72.5101 27.03 73.4727 27.7408 74.1823C28.4515 74.8918 29.4147 75.2904 30.4189 75.2904H35.332C36.5333 75.29 37.6627 74.7183 38.3745 73.7504H61.2185C61.9313 73.7504 62.6146 73.4673 63.1185 72.9633C63.6224 72.4594 63.9055 71.7759 63.9055 71.0633V68.8749C63.9021 68.4008 63.773 67.9362 63.5315 67.5283C64.2514 67.0217 64.6776 66.1949 64.6725 65.3149V63.3322C64.6739 63.0327 64.6234 62.7353 64.5229 62.4532C65.2 62.4029 65.833 62.0987 66.2953 61.6016C66.7578 61.1046 67.0154 60.451 67.0168 59.7722V57.5838C67.0144 57.1068 66.8829 56.6392 66.6365 56.2309C67.1319 56.0092 67.5555 55.6539 67.8595 55.2043C68.1635 54.7548 68.336 54.2293 68.3571 53.6871V52.172C68.376 50.4761 66.7051 49.1482 64.5789 49.1482L64.5791 49.1483ZM35.332 73.4637H30.4191C29.8961 73.4637 29.3942 73.2562 29.0238 72.8871C28.6534 72.5177 28.4444 72.0166 28.4428 71.4936V49.8965C28.4444 49.3736 28.6534 48.8724 29.0238 48.5031C29.3942 48.1339 29.8961 47.9265 30.4191 47.9265H35.3322C35.8552 47.9265 36.3569 48.1339 36.7274 48.5031C37.0978 48.8725 37.3069 49.3736 37.3085 49.8965V71.5061C37.3069 72.0291 37.0979 72.5302 36.7274 72.8995C36.3569 73.2689 35.8552 73.4761 35.3322 73.4761L35.332 73.4637ZM65.2212 59.7473C65.2212 59.9789 65.1293 60.2009 64.9657 60.3645C64.8019 60.5283 64.5799 60.6202 64.3483 60.6202H58.7246C58.4184 60.6456 58.1456 60.8238 57.9993 61.0941C57.8531 61.3644 57.8531 61.6902 57.9993 61.9605C58.1456 62.2308 58.4184 62.409 58.7246 62.4344H61.9729C62.2045 62.4344 62.4265 62.5263 62.5901 62.6901C62.7539 62.8539 62.8458 63.0759 62.8458 63.3073V65.3149C62.8474 65.5469 62.7561 65.77 62.5919 65.9339C62.4279 66.0981 62.2049 66.1895 61.9729 66.1878C61.8749 66.1909 61.7781 66.2098 61.6861 66.2439C61.5323 66.2114 61.3758 66.1927 61.2185 66.1878H56.7107C56.4045 66.2132 56.1317 66.3914 55.9856 66.6617C55.8393 66.9321 55.8393 67.2578 55.9856 67.5282C56.1317 67.7985 56.4045 67.9767 56.7107 68.0021H61.2185C61.4501 68.0021 61.6721 68.094 61.8357 68.2578C61.9995 68.4216 62.0914 68.6434 62.0914 68.875V71.0634C62.0914 71.2948 61.9995 71.5168 61.8357 71.6806C61.6721 71.8444 61.4501 71.9363 61.2185 71.9363H39.0915C39.1009 71.793 39.1009 71.6493 39.0915 71.506V53.2259L43.2626 49.4351H43.2624C44.4379 48.3676 45.3778 47.0664 46.0219 45.6151C46.6661 44.1636 47.0004 42.5938 47.0032 41.0059V37.5518C48.0634 37.6907 49.0372 38.2098 49.7435 39.0125C50.4498 39.8151 50.8409 40.847 50.8439 41.9161V49.7282C50.8405 50.029 50.9458 50.3208 51.1406 50.55C51.3355 50.7791 51.6064 50.9301 51.9038 50.9752C51.964 50.9812 52.0245 50.9812 52.0846 50.9752H64.554C65.72 50.9752 66.5367 51.5986 66.5367 52.1847V53.6998C66.5367 54.2733 65.72 54.9094 64.554 54.9094L60.595 54.9092C60.2888 54.9347 60.016 55.1129 59.8697 55.3833C59.7236 55.6534 59.7236 55.9794 59.8697 56.2497C60.016 56.5198 60.2888 56.6982 60.595 56.7236H64.3359C64.5674 56.7236 64.7895 56.8155 64.9531 56.9793C65.1168 57.1429 65.2088 57.3649 65.2088 57.5965L65.2212 59.7473Z" fill="#246851"/>
<path d="M32.9628 44.971C33.1643 45.0769 33.3983 45.1029 33.6181 45.0439C33.8379 44.9846 34.0273 44.845 34.1486 44.6522C34.2698 44.4596 34.3138 44.2282 34.272 44.0045L33.3805 39.0168L37.0153 35.3881C37.1761 35.2284 37.2713 35.0143 37.2826 34.788C37.2938 34.5617 37.2203 34.3395 37.0762 34.1643C36.9323 33.9894 36.7284 33.8745 36.5041 33.8418L31.454 33.1374L29.172 28.5923C29.0961 28.4425 28.9802 28.3166 28.8371 28.2286C28.6941 28.1405 28.5295 28.0938 28.3616 28.0936C28.1922 28.0942 28.0263 28.1425 27.8831 28.2328C27.7396 28.3233 27.6247 28.4522 27.551 28.6048L25.319 33.1873L20.2689 33.948C20.045 33.9831 19.8423 34.1006 19.7004 34.2774C19.5586 34.4539 19.4877 34.6774 19.5017 34.9035C19.5157 35.1298 19.6138 35.3425 19.7763 35.5004L23.4486 39.0417L22.6132 44.0731C22.5858 44.2393 22.6057 44.41 22.6709 44.5655C22.7358 44.7209 22.8434 44.8549 22.981 44.9521C23.1352 45.0641 23.3205 45.125 23.5109 45.1268C23.6586 45.1256 23.8042 45.0893 23.9349 45.0207L28.4364 42.6204L32.9628 44.971ZM28.0063 40.7938L24.7018 42.5583L25.3253 38.8674V38.8672C25.3715 38.5715 25.2717 38.2715 25.0571 38.0629L22.3575 35.4692L26.0547 34.908V34.9082C26.3491 34.8632 26.603 34.6769 26.7343 34.4094L28.374 31.0239L30.0449 34.3907C30.1781 34.658 30.4348 34.8425 30.7307 34.8833L34.4092 35.3882L31.7471 38.013C31.5332 38.2219 31.4374 38.5235 31.4914 38.8173L32.1461 42.5021L28.823 40.7813C28.564 40.6561 28.2612 40.6608 28.0063 40.7937L28.0063 40.7938Z" fill="#246851"/>
<path d="M75.4597 34.4716C75.4072 34.3097 75.3105 34.1654 75.1807 34.0554C75.0506 33.9452 74.8927 33.8735 74.7242 33.8482L69.6741 33.1437L67.3921 28.5923C67.3162 28.4425 67.2003 28.3166 67.0573 28.2286C66.9142 28.1405 66.7496 28.0938 66.5815 28.0936C66.4121 28.0942 66.2463 28.1425 66.103 28.2328C65.9597 28.3233 65.8446 28.4522 65.7712 28.6048L63.5391 33.1873L58.4953 33.948H58.4951C58.2712 33.9831 58.0687 34.1006 57.9268 34.2774C57.7847 34.4539 57.7139 34.6774 57.7281 34.9035C57.7421 35.1298 57.8399 35.3425 58.0025 35.5004L61.6747 39.0417L60.8394 44.0731C60.8134 44.2405 60.8353 44.412 60.9025 44.5675C60.9699 44.7232 61.0799 44.8565 61.2197 44.9521C61.374 45.0641 61.5593 45.125 61.7496 45.1268C61.8974 45.1256 62.0427 45.0893 62.1736 45.0207L66.6751 42.6204L71.1953 44.971C71.3968 45.0769 71.6308 45.1029 71.8506 45.0438C72.0704 44.9846 72.2598 44.8449 72.3811 44.6521C72.5023 44.4595 72.5463 44.2282 72.5045 44.0045L71.613 39.0167L75.2355 35.3881C75.3518 35.2696 75.4342 35.122 75.4736 34.9607C75.5131 34.7993 75.5085 34.6305 75.4598 34.4716L75.4597 34.4716ZM69.9919 38.0253V38.0255C69.7782 38.2344 69.6824 38.5358 69.7364 38.8297L70.3598 42.5145L67.043 40.7936H67.0428C66.7791 40.6562 66.465 40.6562 66.2011 40.7936L62.8966 42.5581L63.5201 38.8672H63.5203C63.5682 38.5725 63.4706 38.2728 63.2583 38.0629L60.5962 35.4692L64.2933 34.908V34.9082C64.5878 34.8632 64.8417 34.6769 64.9728 34.4094L66.594 31.0239L68.2649 34.3907C68.398 34.658 68.6548 34.8425 68.9507 34.8833L72.6541 35.4008L69.9919 38.0253Z" fill="#246851"/>
<path d="M42.5581 27.6323L41.7228 32.6637C41.7002 32.8261 41.7226 32.9917 41.7873 33.1423C41.8523 33.2929 41.957 33.4228 42.0905 33.5179C42.2433 33.6326 42.4294 33.6939 42.6204 33.6925C42.7682 33.6915 42.9135 33.6551 43.0444 33.5865L47.5459 31.1862L52.0724 33.5366C52.2175 33.6221 52.3835 33.6655 52.5519 33.6622C52.7204 33.659 52.8846 33.6091 53.0262 33.5179C53.1638 33.4181 53.2702 33.2815 53.3331 33.1236C53.396 32.9659 53.4129 32.7934 53.3816 32.6264L52.49 27.6386L56.1249 24.0599C56.3125 23.9043 56.4298 23.6798 56.4507 23.4369C56.4714 23.1939 56.3938 22.9528 56.2353 22.7675C56.0768 22.5824 55.8505 22.4684 55.6074 22.4513L50.5573 21.7469L48.2816 17.1891C48.2079 17.0359 48.0918 16.9068 47.9469 16.8173C47.8022 16.7278 47.635 16.6817 47.4649 16.6842C47.2957 16.6864 47.1305 16.7351 46.9874 16.8254C46.8445 16.9157 46.7292 17.0438 46.6543 17.1954L44.4223 21.7842L39.3971 22.5449C39.1733 22.5783 38.9699 22.6946 38.8276 22.8706C38.6854 23.0468 38.6141 23.2698 38.6285 23.4959C38.6427 23.7218 38.7412 23.9343 38.9046 24.0909L42.5581 27.6323ZM45.1642 23.5049V23.5051C45.4587 23.4558 45.7116 23.2678 45.8437 22.9999L47.5022 19.6394L49.1731 22.9875C49.3095 23.2511 49.5651 23.4324 49.8589 23.4738L53.5624 23.9913L50.9003 26.6161H50.9001C50.6772 26.8199 50.5719 27.1221 50.6196 27.4204L51.2743 31.1052L47.9512 29.3844C47.6882 29.2435 47.3723 29.2435 47.1095 29.3844L43.805 31.1426L44.4285 27.4517V27.4515C44.4707 27.16 44.3711 26.8658 44.1604 26.6598L41.467 24.066L45.1642 23.5049Z" fill="#246851"/>
</svg>
