<svg width="93" height="93" viewBox="0 0 93 93" fill="none" xmlns="http://www.w3.org/2000/svg">
<circle cx="46.5" cy="46.6841" r="45" fill="#CCB66C" stroke="white" stroke-width="2"/>
<path d="M57.6847 51.0288C60.5081 49.3466 62.9286 46.9243 64.6091 44.0981C66.4916 41.003 67.5 37.4366 67.5 33.8031V33.6011V33.5339C67.4328 30.1023 66.5588 26.7378 64.8109 23.7772C62.9284 20.5475 60.2394 17.9237 56.9453 16.1736C56.8781 16.1064 56.8781 16.0392 56.7438 16.0392C53.8529 14.4914 50.7606 13.6841 47.5336 13.6841C47.3993 13.6841 47.3319 13.6841 47.1975 13.7513C43.4328 13.8186 39.8025 14.8951 36.6428 16.9137C34.0209 18.5959 31.8026 20.8838 30.2563 23.5752C28.5084 26.6032 27.5 30.0349 27.5 33.5338V33.7358C27.5 36.9657 28.2394 40.0609 29.7186 42.8869C31.3993 46.1841 33.954 48.8756 37.1136 50.8269C37.5841 51.0961 38.0548 51.3653 38.5253 51.567L34.2899 74.714C34.1555 75.2524 33.6848 77.3383 34.9622 78.2804C35.3655 78.5496 35.7688 78.6841 36.1724 78.6841C37.2479 78.6841 38.391 78.0112 39.2648 77.4728C43.0966 75.0505 46.6598 72.8299 47.9371 72.0898C49.2144 72.8971 52.643 75.0505 56.4749 77.4728C57.7523 78.2801 59.5001 79.2222 60.7775 78.2801C62.0549 77.338 61.517 75.1849 61.3154 74.6465L57.0128 51.3649C57.2142 51.2305 57.4159 51.0957 57.6847 51.0285L57.6847 51.0288ZM29.5165 32.5246C29.6509 30.1023 30.3231 27.68 31.4662 25.5267L35.298 27.8145C35.1636 28.151 34.9619 28.4874 34.8275 28.8239C34.8275 28.8911 34.7603 28.9583 34.7603 28.9583C34.4914 29.6985 34.2898 30.4386 34.1552 31.179C34.1552 31.2462 34.1552 31.3134 34.088 31.3809C34.0209 31.7173 33.9537 32.0538 33.9537 32.3902V32.4575H32.0712L29.5165 32.5246ZM37.1804 38.917C36.3738 37.302 35.9702 35.5526 35.9702 33.6684V33.5339C35.9702 31.5825 36.5753 29.6311 37.5166 27.8817C38.3906 26.4015 39.6005 25.0558 41.0797 24.1137H41.1469C42.8276 22.9699 44.8444 22.3643 46.8612 22.297C46.9956 22.3643 47.1302 22.4315 47.3317 22.4315L47.4661 22.297C49.2811 22.297 51.0292 22.6335 52.6425 23.4408C54.3903 24.3157 55.802 25.5939 56.9451 27.1416C57.0794 27.3436 57.2812 27.6126 57.4156 27.8145C58.424 29.5639 59.0291 31.5154 59.0291 33.534V33.7359C59.0291 35.8218 58.424 37.9077 57.3484 39.7246C56.34 41.4068 54.9283 42.7525 53.2476 43.7618C51.4999 44.7709 49.4831 45.3093 47.466 45.3093C47.1299 45.3093 46.8609 45.3093 46.592 45.2421C44.7095 45.1076 42.8945 44.502 41.3481 43.4927C39.5331 42.4159 38.1213 40.8012 37.1802 38.917H37.1804ZM48.4074 18.4615L48.4745 15.77C50.6932 15.9044 52.8443 16.4428 54.8611 17.3177L52.6425 21.2205C51.2308 20.6149 49.8191 20.2784 48.2728 20.2112L48.4074 18.4615ZM65.4831 34.5433C65.3487 37.1676 64.6765 39.7918 63.3991 42.1468L62.3235 41.5411L59.567 39.9262C59.567 39.9262 59.567 39.8589 59.6342 39.8589C59.7686 39.5225 59.9703 39.1861 60.1047 38.8496C60.1719 38.7824 60.1719 38.6477 60.2391 38.5804C60.3734 38.1767 60.508 37.8403 60.6424 37.4366C60.6424 37.3694 60.6424 37.3022 60.7096 37.2347C60.7768 36.8983 60.8439 36.5618 60.9113 36.1581C60.9113 36.0909 60.9785 35.9562 60.9785 35.8889C61.0457 35.4853 61.1129 35.0816 61.1129 34.6777V34.6104H63.1297L65.4831 34.5433ZM38.9956 49.6157L41.0795 45.9821L41.2139 45.7802C41.2811 45.7802 41.3483 45.8474 41.3483 45.8474C41.55 45.9819 41.8188 46.0494 42.0877 46.1839C42.1549 46.2511 42.2895 46.2511 42.3567 46.3184C42.6928 46.4528 42.9618 46.5876 43.2979 46.6548H43.4323C43.7012 46.722 44.0374 46.8568 44.3063 46.924C44.3735 46.924 44.5081 46.9912 44.5753 46.9912C44.8442 47.0585 45.1132 47.1257 45.3819 47.1257H45.5837L45.5165 48.7407L45.4493 51.5667C43.0964 51.3652 40.9452 50.6923 38.9955 49.6157L38.9956 49.6157ZM47.4662 47.3279C49.5502 47.3279 51.567 46.857 53.3822 45.9821L55.7351 49.7502C53.1804 51.096 50.357 51.7688 47.4662 51.7688H47.3318L47.4662 47.3279ZM57.483 48.7409L55.1301 44.9728C55.1973 44.9728 55.1973 44.9056 55.2645 44.9056C55.4662 44.7711 55.7349 44.5691 55.9367 44.3672C56.0039 44.2999 56.0711 44.2327 56.1385 44.1652C56.4074 43.9633 56.6764 43.6943 56.9451 43.4251C57.2141 43.1559 57.4156 42.9542 57.6174 42.685C57.6846 42.6178 57.7517 42.5505 57.8191 42.4831C58.0209 42.2811 58.1553 42.0121 58.3571 41.8102L58.4914 41.6757L62.3233 43.9635C61.0459 45.7802 59.3652 47.4624 57.483 48.7409ZM61.92 32.5245H60.9787V32.39C60.9787 32.0536 60.9116 31.7172 60.8444 31.448C60.8444 31.3807 60.8444 31.246 60.7772 31.1788C60.71 30.8423 60.6428 30.5059 60.5082 30.1022V30.035C60.3739 29.6985 60.3065 29.2949 60.1721 28.9584C60.1049 28.8912 60.1049 28.7565 60.0377 28.6892C59.9034 28.42 59.836 28.1508 59.7016 27.8819C59.7016 27.8146 59.6344 27.7474 59.6344 27.7474L63.5337 25.5943C64.6093 27.7474 65.2816 30.1025 65.4162 32.5249L61.92 32.5245ZM62.5251 23.9117L58.6258 26.0648C58.3568 25.7283 58.1553 25.3919 57.8863 25.0555C57.8192 24.9882 57.752 24.921 57.6846 24.7863C57.4156 24.5171 57.1467 24.1806 56.878 23.9114L56.8108 23.8442C56.4746 23.575 56.2057 23.3058 55.8695 23.0368C55.8024 22.9696 55.6678 22.9023 55.6006 22.8349C55.3316 22.6329 54.9955 22.4312 54.6593 22.2292C54.5922 22.2292 54.5922 22.162 54.5922 22.162L56.7433 18.3267C59.0291 19.6727 60.9787 21.6241 62.5249 23.9117L62.5251 23.9117ZM46.525 15.7698L46.3906 20.2108C44.5082 20.3453 42.626 20.9509 40.9453 21.8258L38.5923 18.0577C41.0125 16.7119 43.7687 15.9046 46.5251 15.7698H46.525ZM36.9115 19.2015L39.2645 22.9695C39.1973 22.9695 39.1973 23.0368 39.1301 23.104C38.9283 23.2385 38.7268 23.4405 38.5922 23.5749C38.525 23.6422 38.4578 23.7094 38.3904 23.7769C38.1886 23.9789 37.9199 24.1806 37.7181 24.3825C37.5164 24.5845 37.3148 24.8535 37.113 25.1227C37.0459 25.1899 36.9787 25.2571 36.9113 25.3246C36.7769 25.5266 36.6423 25.7283 36.508 25.863C36.4408 25.9302 36.4408 25.9302 36.3736 25.9975L33.214 24.1133L32.5418 23.7096C33.6845 22.0277 35.1634 20.4799 36.9115 19.2015ZM31.8021 34.5431H33.9532C33.9532 34.8795 34.0204 35.216 34.0204 35.4852C34.0204 35.5524 34.0204 35.6871 34.0876 35.7544C34.1548 36.0236 34.1548 36.36 34.222 36.6292V36.7637C34.2891 37.1002 34.3563 37.4366 34.4909 37.7058C34.4909 37.7731 34.5581 37.8403 34.5581 37.975C34.6253 38.2442 34.7599 38.5134 34.8271 38.7823C34.8271 38.8496 34.8271 38.8496 34.8942 38.9168L30.9949 41.0699C30.0537 38.9841 29.5832 36.8307 29.4486 34.543L31.8021 34.5431ZM31.9367 42.8868L33.6845 41.9447L35.8357 40.8009C35.8357 40.8682 35.9029 40.8682 35.9029 40.9354C36.1046 41.2046 36.3062 41.5411 36.508 41.8103C36.5751 41.8775 36.6423 41.9448 36.7097 42.0795C36.9787 42.4159 37.1802 42.6851 37.4492 43.0215L38.323 43.8962C38.3902 43.9634 38.4574 44.0307 38.5248 44.0981C38.7937 44.3673 39.1299 44.5691 39.3988 44.8382H39.466L37.2474 48.7411C35.0963 47.0586 33.2812 45.1747 31.9366 42.887L31.9367 42.8868ZM59.3654 75.0504V75.1849C59.4997 75.7233 59.5671 76.3962 59.4997 76.6651C59.3654 76.6651 58.7603 76.5978 57.5501 75.7902C53.1131 72.9643 49.2811 70.5417 48.6089 70.1381C48.5417 70.0708 48.5417 70.0708 48.4745 70.0036C48.1384 69.8016 47.8022 69.8016 47.4661 70.0036C47.3989 70.0036 43.0291 72.6951 38.1887 75.7903C36.8442 76.6652 36.3063 76.7324 36.1047 76.6652C36.0376 76.4632 36.0376 75.7903 36.1719 75.2522V75.1177L40.3399 52.4417C42.2224 53.1818 44.1717 53.5855 46.1887 53.7202H46.4576C46.7938 53.7202 47.1299 53.7875 47.466 53.7875C50.0879 53.7875 52.7099 53.2491 55.1299 52.2397L59.3654 75.0504Z" fill="#246851"/>
</svg>
