<svg width="93" height="93" viewBox="0 0 93 93" fill="none" xmlns="http://www.w3.org/2000/svg">
<circle cx="46.5" cy="46.6841" r="45" fill="#CCB66C" stroke="white" stroke-width="2"/>
<path d="M67.8376 37.1444C64.5602 32.2137 59.8377 28.6112 53.9912 28.0205C53.3061 25.941 51.3409 24.4341 49.0249 24.4341H44.9143C42.6101 24.4341 40.6523 25.9253 39.9577 27.9886C34.5241 28.4249 29.8102 32.0477 26.4356 37.0184C23.0557 41.9968 20.9935 48.3617 20.8816 54.348C19.3389 54.9883 18.25 56.5386 18.25 58.3462V59.7148C18.25 62.495 19.9889 64.9967 22.5806 65.9404L22.5807 65.9404C30.738 68.9075 38.7765 69.9341 45.9991 69.9341C57.2274 69.9341 66.4885 67.4512 71.1537 65.9089L71.0753 65.6716L71.1538 65.9089C73.8665 65.0118 75.6888 62.4832 75.6888 59.6184V58.3458C75.6888 56.5389 74.6006 54.989 73.0589 54.3481C72.9623 48.3524 71.1147 42.0747 67.8376 37.1444ZM54.2535 31.079V29.9739C59.3249 30.6463 63.4597 33.9001 66.3738 38.3746C69.2959 42.8614 70.9754 48.5556 71.1275 54.0309L47.9315 54.0307V33.5694C47.9315 33.039 47.4997 32.6123 46.9698 32.6123C46.4399 32.6123 46.008 33.039 46.008 33.5694V54.0307H22.8147C22.9876 48.5703 24.8515 42.7983 27.8651 38.2627C30.8695 33.7408 34.9919 30.4815 39.6856 29.9396V31.0788C39.6856 31.6092 40.1174 32.0359 40.6474 32.0359C41.1773 32.0359 41.6091 31.6092 41.6091 31.0788V29.6377C41.6091 27.8255 43.0913 26.3482 44.9143 26.3482H49.0248C50.5987 26.3482 51.9171 27.4512 52.2473 28.9204C52.2498 28.9955 52.2652 29.0625 52.275 29.1056C52.2754 29.1069 52.2757 29.1083 52.276 29.1096C52.3063 29.2935 52.33 29.4646 52.33 29.638V31.079C52.33 31.6095 52.7618 32.0361 53.2917 32.0361C53.8217 32.0361 54.2535 31.6095 54.2535 31.079ZM23.2407 64.1419L23.2407 64.1419C21.4084 63.4755 20.1733 61.6968 20.1733 59.7146V58.346C20.1733 57.0106 21.205 55.9452 22.4477 55.9452H71.4909C72.7336 55.9452 73.7653 57.0106 73.7653 58.346L73.7652 59.6186C73.7652 61.6591 72.4712 63.4562 70.5477 64.0918L70.6261 64.3292L70.5476 64.0918C63.0685 66.5642 43.4993 71.5123 23.2407 64.1419Z" fill="#246851" stroke="#246851" stroke-width="0.5"/>
</svg>
